<svg width="68" height="68" viewBox="0 0 68 68" fill="none" xmlns="http://www.w3.org/2000/svg">
<path d="M49.9649 12.6281C49.4461 13.1474 49.4461 13.9884 49.9649 14.5061C50.4832 15.0254 51.3252 15.0254 51.843 14.5061C52.3623 13.9884 52.3623 13.1474 51.843 12.6281C51.3252 12.1103 50.4832 12.1103 49.9649 12.6281Z" fill="white"/>
<path d="M15.2179 13.567C14.6985 14.0863 14.6985 14.9273 15.2179 15.4451C15.7361 15.9644 16.5781 15.9644 17.0959 15.4451C17.6152 14.9273 17.6152 14.0863 17.0959 13.567C16.5781 13.0493 15.7361 13.0493 15.2179 13.567Z" fill="white"/>
<path d="M66.8321 16.4211L55.5633 5.15225C54.0064 3.59534 51.4866 3.59482 49.9291 5.15225L43.6978 11.3835C40.5524 10.2614 37.0152 10.9203 34.4788 13.1215C31.2176 11.5521 27.4154 11.5475 24.1516 13.1091L18.0708 7.01163C16.5139 5.45471 13.9941 5.45419 12.4366 7.01163L1.16781 18.2804C-0.390655 19.8394 -0.387542 22.3592 1.16678 23.9135C1.31048 24.0578 7.5096 30.2735 7.70519 30.4696C7.41414 32.5214 8.09948 34.6236 9.5822 36.1063L7.70467 37.9844C5.63 40.0585 5.62896 43.4219 7.70519 45.4981C8.7791 46.571 10.2535 47.1344 11.7954 47.0385C11.6984 48.5881 12.2613 50.0527 13.3393 51.1307C14.3909 52.1834 15.8441 52.7743 17.4301 52.6762C17.3336 54.2383 17.9058 55.6972 18.9735 56.7664C20.037 57.83 21.4943 58.4079 23.0637 58.3114C22.9677 59.874 23.5405 61.3334 24.6092 62.4021C26.6802 64.4716 30.0503 64.4716 32.1224 62.4011L34 60.5231L35.878 62.4021C37.9496 64.4716 41.3192 64.4711 43.3907 62.4016C44.5103 61.2821 45.0234 59.7827 44.9331 58.314C46.6275 58.4256 48.2337 57.7241 49.3211 56.4453C50.2171 55.3932 50.601 54.0282 50.4936 52.6705C52.0811 52.7909 53.5721 52.2197 54.6595 51.1318C55.736 50.0558 56.301 48.5912 56.2045 47.0379C57.7464 47.1339 59.2218 46.5695 60.2952 45.4971C62.3647 43.4255 62.3647 40.0554 60.2947 37.9839L59.2882 36.9779C61.1445 34.4939 61.6467 31.2198 60.6008 28.2865L66.8316 22.0552C68.389 20.4978 68.3895 17.9785 66.8321 16.4211ZM9.58324 43.6196C8.54668 42.5825 8.54564 40.9 9.58324 39.8624C11.5993 37.8459 13.2008 36.2443 15.2179 34.2273C16.2534 33.1923 17.938 33.1917 18.9735 34.2273C20.0033 35.2571 20.0204 36.938 18.975 37.9828C18.9745 37.9834 18.9745 37.9834 18.974 37.9839L18.9735 37.9844L13.3404 43.6191C12.3043 44.6541 10.6188 44.6541 9.58324 43.6196ZM15.2184 49.2532C14.1798 48.2146 14.1793 46.5373 15.2179 45.4981C15.2179 45.4976 15.2179 45.4976 15.2184 45.4976L20.8515 39.863C21.8876 38.828 23.5731 38.828 24.6092 39.8624C25.6499 40.9031 25.6457 42.583 24.6092 43.6191L18.9735 49.2537C17.9364 50.2918 16.2565 50.2918 15.2184 49.2532ZM20.8526 54.8889C19.8139 53.8482 19.8165 52.1699 20.8515 51.1318C20.8521 51.1318 20.8521 51.1318 20.8521 51.1313L26.4872 45.4976L26.4878 45.4971C27.5238 44.4616 29.2089 44.4621 30.2433 45.4966C31.282 46.5368 31.2804 48.2146 30.2444 49.2527C30.2444 49.2527 30.2444 49.2527 30.2439 49.2532C30.2439 49.2532 30.2439 49.2532 30.2433 49.2537L24.6087 54.8884C23.5695 55.9275 21.8897 55.9255 20.8526 54.8889ZM30.2444 60.5231C29.2083 61.5581 27.5228 61.5581 26.4872 60.5236C25.4491 59.4855 25.4481 57.8061 26.4867 56.767L26.4872 56.7664L32.1209 51.1323C32.1214 51.1323 32.1219 51.1318 32.1224 51.1313C33.1595 50.0942 34.8404 50.0937 35.878 51.1313C36.9161 52.1694 36.9166 53.8492 35.878 54.8884C33.9766 56.7903 32.3372 58.4297 30.2444 60.5231ZM41.5132 60.5231C40.4771 61.5581 38.7916 61.5581 37.7566 60.5236L35.8785 58.6445L37.7561 56.7664C38.4263 56.0961 38.8943 55.278 39.1319 54.3857L41.5127 56.7664C42.5487 57.8025 42.5487 59.4875 41.5132 60.5231ZM58.4177 43.6191C57.3811 44.6541 55.6956 44.6541 54.6606 43.6196L49.0264 37.9844C48.5081 37.4656 47.6672 37.4661 47.1484 37.9839C46.6296 38.5027 46.6296 39.3436 47.1479 39.8624L52.7825 45.4981C53.818 46.5326 53.8232 48.2125 52.7815 49.2537C51.7475 50.2882 50.0692 50.2965 49.0218 49.2485L48.8941 49.1219L43.3912 43.6196C42.8724 43.1008 42.0315 43.1008 41.5127 43.6196C40.9939 44.1379 40.9939 44.9788 41.5127 45.4976L47.0078 50.9922C48.0298 52.0781 48.1585 53.7138 47.2983 54.7239C46.5793 55.5696 45.44 55.8819 44.3946 55.5198C43.4021 55.1753 43.523 54.905 37.7561 49.2532C36.706 48.2032 35.2539 47.6112 33.6658 47.7093C33.7618 46.1477 33.1896 44.6888 32.1219 43.6196C31.0018 42.499 29.5009 41.9859 28.0317 42.0777C28.1282 40.5275 27.5658 39.063 26.4867 37.9839C25.3661 36.8643 23.8658 36.3517 22.3965 36.4436C22.493 34.8934 21.9306 33.4278 20.8521 32.3492C18.781 30.2782 15.4109 30.2782 13.3399 32.3492L11.4608 34.2283C10.4579 33.2255 10.0631 31.75 10.4304 30.3773C10.5524 29.9202 10.4221 29.432 10.0875 29.0963L6.77135 25.7714L13.3404 19.2023C13.8587 18.6841 13.8587 17.8431 13.3404 17.3243C12.8216 16.8055 11.9806 16.8055 11.4623 17.3243L4.8959 23.8907L3.04638 22.0365C2.52707 21.5172 2.52707 20.6778 3.04638 20.1585L14.3152 8.88968C14.8371 8.36776 15.677 8.37399 16.1917 8.88864L22.9662 15.6818C23.3942 16.1108 24.0598 16.1959 24.5822 15.8872C26.9811 14.4699 29.8594 14.2214 32.4275 15.1391L25.5477 22.0194C23.4782 24.0905 23.4782 27.4606 25.5482 29.5326C27.6198 31.6021 30.9894 31.6021 33.0614 29.5321L35.8785 26.7151C38.473 24.1195 42.6732 24.1185 45.2688 26.7156L58.4167 39.8619C59.4517 40.898 59.4517 42.5841 58.4177 43.6191ZM64.954 20.1772L62.1728 22.9579L55.5991 16.3853C55.0803 15.8665 54.2393 15.867 53.7205 16.3853C53.2022 16.9041 53.2022 17.745 53.7205 18.2638L60.2947 24.8365L58.0955 27.0352C57.6976 27.4336 57.5939 28.0396 57.8367 28.5475C58.853 30.6735 58.6486 33.1544 57.3827 35.0719L47.1473 24.8375C43.5147 21.2033 37.6331 21.2023 34 24.8375L31.1834 27.6541C30.1474 28.6891 28.4613 28.6891 27.4263 27.6546C26.3913 26.6186 26.3913 24.933 27.4263 23.8975C29.2338 22.09 32.9463 18.3775 35.878 15.4452C37.8655 13.4577 40.9031 12.9368 43.4369 14.1477C43.9448 14.3905 44.5508 14.2867 44.9492 13.8888L51.8072 7.0303C52.326 6.51151 53.1659 6.51099 53.6852 7.0303L64.954 18.2996C65.4718 18.8174 65.4739 19.6568 64.954 20.1772Z" fill="white"/>
</svg>
