<svg width="68" height="68" viewBox="0 0 68 68" fill="none" xmlns="http://www.w3.org/2000/svg">
<g clip-path="url(#clip0_1049_1633)">
<path d="M57.9841 31.0944V13.9442C57.9841 9.86819 54.6462 6.50156 50.5699 6.50156H49.6465V5.33898C49.6465 2.43077 47.2888 0.0731367 44.3806 0.0731367C41.4724 0.0731367 39.1148 2.43077 39.1148 5.33898V6.50156H19.8067V5.33898C19.8067 2.3904 17.4163 0 14.4677 0C11.5191 0 9.12875 2.3904 9.12875 5.33898V6.50156H8.33083C4.25463 6.50156 0.937439 9.86819 0.937439 13.9442V53.3245C0.937439 57.4007 4.25463 60.769 8.33083 60.769H31.5289C35.3535 65.3438 41.0067 67.9912 46.9697 68C58.0426 68 67.0625 58.9783 67.0625 47.9051C67.0628 40.8868 63.3962 34.6859 57.9841 31.0944ZM42.0403 5.33898C42.0177 4.06494 43.0321 3.01382 44.3062 2.99129C44.3267 2.991 44.3471 2.99085 44.3676 2.991C45.6536 2.97739 46.7074 4.00891 46.721 5.2951C46.7211 5.30972 46.7211 5.32435 46.721 5.33898V11.036H42.0403V5.33898ZM12.0542 5.33898C12.0681 4.02822 13.142 2.97696 14.4528 2.99085C14.4551 2.99085 14.4573 2.99085 14.4595 2.991C15.7751 2.991 16.8812 4.02354 16.8812 5.33898V11.036H12.0542V5.33898ZM3.86291 13.9442C3.86291 11.4811 5.86773 9.42702 8.33083 9.42702H9.12875V12.5596C9.12875 13.3673 9.80336 13.9615 10.6112 13.9615H18.3081C19.1159 13.9615 19.8067 13.3673 19.8067 12.5596V9.42702H39.1148V12.5596C39.0931 13.3122 39.6857 13.9399 40.4383 13.9615C40.4652 13.9622 40.4921 13.9622 40.519 13.9615H48.2159C48.9802 13.987 49.6204 13.388 49.6459 12.6237C49.6466 12.6023 49.6468 12.581 49.6465 12.5596V9.42702H50.5699C53.0497 9.45204 55.0492 11.4645 55.0586 13.9442V18.6422H3.86291V13.9442ZM8.33083 57.8435C5.86773 57.8435 3.86291 55.7876 3.86291 53.3245V21.5677H55.0586V29.5036C52.5124 28.3857 49.7616 27.8091 46.9808 27.8101C35.9079 27.8101 26.8935 36.8449 26.8935 47.9181C26.8879 51.3969 27.7871 54.8173 29.5029 57.8435H8.33083ZM46.9697 65.0485C37.4944 65.0485 29.8131 57.3672 29.8131 47.8919C29.8131 38.4166 37.4944 30.7354 46.9697 30.7354C56.445 30.7354 64.1262 38.4166 64.1262 47.8919V47.8921C64.1155 57.3629 56.4406 65.0378 46.9697 65.0485Z" fill="white"/>
<path d="M53.8606 47.8968H47.4524V39.0955C47.4524 38.2877 46.7975 37.6328 45.9897 37.6328C45.1818 37.6328 44.5269 38.2877 44.5269 39.0955V49.3581C44.5398 50.1715 45.2036 50.8237 46.0171 50.8223H53.8606C54.6685 50.8223 55.3234 50.1674 55.3234 49.3595C55.3234 48.5517 54.6685 47.8968 53.8606 47.8968Z" fill="white"/>
</g>
<defs>
<clipPath id="clip0_1049_1633">
<rect width="68" height="68" fill="white"/>
</clipPath>
</defs>
</svg>
