<svg width="68" height="68" viewBox="0 0 68 68" fill="none" xmlns="http://www.w3.org/2000/svg">
<g clip-path="url(#clip0_1049_1688)">
<path d="M64.0013 56.3224V19.2468C64.3969 18.7165 64.6078 18.124 64.5978 17.5053C64.5785 16.3127 63.7556 15.2356 62.3396 14.5505L36.4817 2.04012C34.137 0.905898 30.4635 0.905898 28.119 2.04012L2.26093 14.5505C0.843552 15.2364 0.019583 16.3136 0.000458027 17.5063C-0.0185342 18.6969 0.768513 19.7982 2.15972 20.5275L9.35205 24.2974V42.8278C9.35205 48.7022 14.1373 53.4813 20.019 53.4813H44.0039C49.8856 53.4813 54.6709 48.7022 54.6709 42.8278V24.6L61.3354 21.1068V56.3224C59.0396 56.9166 57.3367 58.9997 57.3367 61.4786C57.3367 64.4184 59.7285 66.8102 62.6683 66.8102C65.6081 66.8102 68.0001 64.4184 68.0001 61.4786C68.0001 58.9998 66.297 56.9166 64.0013 56.3224ZM52.0052 42.8276C52.0052 47.232 48.4158 50.8154 44.004 50.8154H20.019C15.6073 50.8154 12.0179 47.2321 12.0179 42.8276V25.6946L28.1434 34.1466C29.3089 34.7574 30.8045 35.0627 32.3003 35.0627C33.7959 35.0627 35.2915 34.7574 36.4571 34.1466L52.0052 25.9972V42.8276ZM61.2033 18.1662L35.2194 31.7855C33.664 32.6008 30.9359 32.6005 29.381 31.7855L3.39727 18.1662C2.82352 17.8655 2.67437 17.5991 2.66561 17.5534C2.67583 17.4984 2.83415 17.2345 3.42197 16.95L29.2799 4.43964C30.8888 3.66136 33.7117 3.66136 35.3206 4.43964L61.1784 16.9502C61.7658 17.2344 61.9227 17.4974 61.9324 17.5441C61.9246 17.5991 61.7769 17.8655 61.2033 18.1662ZM62.6684 64.1444C61.1986 64.1444 60.0026 62.9485 60.0026 61.4786C60.0026 60.0087 61.1986 58.8128 62.6684 58.8128C64.1384 58.8128 65.3343 60.0088 65.3343 61.4786C65.3343 62.9486 64.1383 64.1444 62.6684 64.1444Z" fill="white"/>
</g>
<defs>
<clipPath id="clip0_1049_1688">
<rect width="68" height="68" fill="white"/>
</clipPath>
</defs>
</svg>
