<svg width="68" height="68" viewBox="0 0 68 68" fill="none" xmlns="http://www.w3.org/2000/svg">
<path d="M51.68 0C47.9305 0 44.88 3.05057 44.88 6.8V9.52H10.88C10.129 9.52 9.52002 10.1289 9.52002 10.88V66.64C9.52002 67.3911 10.129 68 10.88 68H51.6796C55.4292 68 58.48 64.9494 58.48 61.2V59.84V55.76V6.8C58.48 3.05057 55.4296 0 51.68 0ZM55.76 61.2C55.76 63.4497 53.9295 65.28 51.6796 65.28H12.24V12.24H44.88V59.84C44.88 60.5911 45.489 61.2 46.24 61.2C46.9911 61.2 47.6 60.5911 47.6 59.84C47.6 57.5903 49.4302 55.76 51.68 55.76C53.9299 55.76 55.76 57.5903 55.76 59.84V61.2ZM55.76 54.4032C54.6229 53.5477 53.2094 53.04 51.68 53.04C50.1507 53.04 48.7372 53.5477 47.6 54.4032V6.8C47.6 4.55029 49.4302 2.72 51.68 2.72C53.9299 2.72 55.76 4.55029 55.76 6.8V54.4032Z" fill="white"/>
<path d="M40.7999 21.7598H16.3199V24.4798H40.7999V21.7598Z" fill="white"/>
<path d="M40.7999 27.2002H16.3199V29.9202H40.7999V27.2002Z" fill="white"/>
<path d="M40.7999 32.6401H16.3199V35.3601H40.7999V32.6401Z" fill="white"/>
</svg>
